<svg xmlns="http://www.w3.org/2000/svg" xmlns:xlink="http://www.w3.org/1999/xlink" width="129.122" height="110.25" viewBox="0 0 129.122 110.25">
  <defs>
    <clipPath id="clip-path">
      <rect id="Rectangle_90" data-name="Rectangle 90" width="129.122" height="110.25" fill="#fff"/>
    </clipPath>
  </defs>
  <g id="Group_17" data-name="Group 17" transform="translate(0)">
    <g id="Group_16" data-name="Group 16" transform="translate(0 0)" clip-path="url(#clip-path)">
      <path id="Path_33" data-name="Path 33" d="M59.473.145,45.629,6.522a.452.452,0,0,0,0,.819l13.844,6.376a1.573,1.573,0,0,0,1.317,0L74.635,7.341a.451.451,0,0,0,0-.819L60.791.145a1.573,1.573,0,0,0-1.317,0" transform="translate(4.429 0)" fill="#fff"/>
      <path id="Path_34" data-name="Path 34" d="M59.7,20.378c-6.088,0-10.68-2.09-10.68-4.861V8.272l9.749,4.49a2.393,2.393,0,0,0,2.011,0l9.6-4.422v7.176c0,2.771-4.59,4.861-10.68,4.861" transform="translate(4.785 0.886)" fill="#fff"/>
      <path id="Path_35" data-name="Path 35" d="M61.034,13.357a3.175,3.175,0,0,1-2.656,0L49.729,9.373V15.4c0,2.252,4.433,4.077,9.9,4.077s9.9-1.826,9.9-4.077V9.442Z" transform="translate(4.855 1.004)" fill="#fff"/>
      <path id="Path_36" data-name="Path 36" d="M24.765,10.689a11.164,11.164,0,0,0-3.292,6.019,10.968,10.968,0,0,0,6.432-2.273A11.156,11.156,0,0,0,31.2,8.416a10.968,10.968,0,0,0-6.432,2.273" transform="translate(2.096 0.902)" fill="#fff"/>
      <path id="Path_37" data-name="Path 37" d="M38.623,91.04a11.753,11.753,0,0,1,2.1,6.407c.007.043-4.642-1.459-6.631-4.73a8.244,8.244,0,0,1-.875-6.446,19.193,19.193,0,0,1,5.4,4.768" transform="translate(3.214 9.24)" fill="#fff"/>
      <path id="Path_38" data-name="Path 38" d="M35.548,99.975a7.978,7.978,0,0,0,5.8-3.609,25.728,25.728,0,0,0-8.244-1.133,10.5,10.5,0,0,0-6.213,2.676c-.055.01,4.459,2.63,8.654,2.066" transform="translate(2.625 10.195)" fill="#fff"/>
      <path id="Path_39" data-name="Path 39" d="M31.263,87.571a11.541,11.541,0,0,1,.713,6.529c0,.044-4.05-2.18-5.311-5.675a8.265,8.265,0,0,1,.4-6.377,17.718,17.718,0,0,1,4.2,5.523" transform="translate(2.557 8.788)" fill="#fff"/>
      <path id="Path_40" data-name="Path 40" d="M26.609,95.583a7.838,7.838,0,0,0,6.147-2.509A23.441,23.441,0,0,0,25.224,90.6a10.32,10.32,0,0,0-6.417,1.529c-.05,0,3.751,3.3,7.8,3.457" transform="translate(1.836 9.699)" fill="#fff"/>
      <path id="Path_41" data-name="Path 41" d="M24.981,82.971a11.46,11.46,0,0,1-.555,6.433c0,.043-3.439-2.8-4.014-6.4A8.25,8.25,0,0,1,21.966,76.9a16.858,16.858,0,0,1,3.015,6.076" transform="translate(1.983 8.236)" fill="#fff"/>
      <path id="Path_42" data-name="Path 42" d="M18.966,89.869A7.679,7.679,0,0,0,25.3,88.494a22.005,22.005,0,0,0-6.737-3.687,10.13,10.13,0,0,0-6.463.371c-.047-.007,3.023,3.848,6.863,4.691" transform="translate(1.181 9.045)" fill="#fff"/>
      <path id="Path_43" data-name="Path 43" d="M19.812,77.423a11.328,11.328,0,0,1-1.7,6.141c-.008.043-2.808-3.3-2.734-6.909a8.156,8.156,0,0,1,2.582-5.667,16.418,16.418,0,0,1,1.855,6.436" transform="translate(1.501 7.603)" fill="#fff"/>
      <path id="Path_44" data-name="Path 44" d="M12.665,83.057a7.531,7.531,0,0,0,6.371-.233,21.241,21.241,0,0,0-5.858-4.751,10.012,10.012,0,0,0-6.35-.776c-.044-.014,2.273,4.273,5.837,5.759" transform="translate(0.666 8.257)" fill="#fff"/>
      <path id="Path_45" data-name="Path 45" d="M15.787,71.112a11.122,11.122,0,0,1-2.723,5.676c-.013.04-2.156-3.708-1.474-7.213A8,8,0,0,1,15.068,64.5a16.213,16.213,0,0,1,.719,6.611" transform="translate(1.118 6.909)" fill="#fff"/>
      <path id="Path_46" data-name="Path 46" d="M7.746,75.373a7.458,7.458,0,0,0,6.244.9A20.958,20.958,0,0,0,9.1,70.607a10.011,10.011,0,0,0-6.075-1.889c-.041-.02,1.506,4.58,4.723,6.655" transform="translate(0.295 7.359)" fill="#fff"/>
      <path id="Path_47" data-name="Path 47" d="M12.946,64.224a10.832,10.832,0,0,1-3.616,5.059c-.019.039-1.484-4-.237-7.317a7.813,7.813,0,0,1,4.244-4.352,16.113,16.113,0,0,1-.392,6.609" transform="translate(0.839 6.171)" fill="#fff"/>
      <path id="Path_48" data-name="Path 48" d="M4.254,67.027a7.445,7.445,0,0,0,5.957,1.994A21.156,21.156,0,0,0,6.37,62.6,10.061,10.061,0,0,0,.735,59.66c-.036-.025.719,4.764,3.519,7.367" transform="translate(0.072 6.39)" fill="#fff"/>
      <path id="Path_49" data-name="Path 49" d="M11.333,56.947a10.564,10.564,0,0,1-4.376,4.318c-.024.033-.791-4.2.977-7.236a7.626,7.626,0,0,1,4.878-3.523,16.155,16.155,0,0,1-1.478,6.441" transform="translate(0.661 5.41)" fill="#fff"/>
      <path id="Path_50" data-name="Path 50" d="M2.234,58.227a7.5,7.5,0,0,0,5.5,3.031,21.577,21.577,0,0,0-2.7-7A10.221,10.221,0,0,0,.009,50.338c-.032-.031-.088,4.829,2.225,7.889" transform="translate(0 5.392)" fill="#fff"/>
      <path id="Path_51" data-name="Path 51" d="M10.99,49.465a10.272,10.272,0,0,1-5,3.469c-.03.03-.078-4.281,2.167-6.97a7.465,7.465,0,0,1,5.372-2.609,16.326,16.326,0,0,1-2.537,6.111" transform="translate(0.584 4.644)" fill="#fff"/>
      <path id="Path_52" data-name="Path 52" d="M1.746,49.2a7.558,7.558,0,0,0,4.881,3.986,22.218,22.218,0,0,0-1.472-7.4A10.353,10.353,0,0,0,.907,40.989c-.027-.035-.914,4.771.839,8.209" transform="translate(0.064 4.39)" fill="#fff"/>
      <path id="Path_53" data-name="Path 53" d="M11.936,41.973a10.041,10.041,0,0,1-5.49,2.539c-.035.025.655-4.257,3.331-6.533A7.35,7.35,0,0,1,15.5,36.344a16.822,16.822,0,0,1-3.568,5.63" transform="translate(0.629 3.885)" fill="#fff"/>
      <path id="Path_54" data-name="Path 54" d="M2.862,40.169A7.627,7.627,0,0,0,6.95,45.007,23.253,23.253,0,0,0,6.8,37.389a10.487,10.487,0,0,0-3.3-5.541c-.022-.039-1.762,4.592-.64,8.321" transform="translate(0.243 3.411)" fill="#fff"/>
      <path id="Path_55" data-name="Path 55" d="M14.2,34.678a9.868,9.868,0,0,1-5.838,1.548c-.041.02,1.408-4.126,4.471-5.93a7.277,7.277,0,0,1,5.938-.624,17.647,17.647,0,0,1-4.57,5.006" transform="translate(0.816 3.139)" fill="#fff"/>
      <path id="Path_56" data-name="Path 56" d="M5.622,31.365a7.664,7.664,0,0,0,3.121,5.561A24.753,24.753,0,0,0,10,29.289a10.644,10.644,0,0,0-2.165-6.141c-.02-.041-2.63,4.293-2.215,8.217" transform="translate(0.544 2.479)" fill="#fff"/>
      <path id="Path_57" data-name="Path 57" d="M17.809,27.763a9.726,9.726,0,0,1-6.043.521c-.046.014,2.183-3.888,5.584-5.171a7.186,7.186,0,0,1,6,.4,18.953,18.953,0,0,1-5.542,4.247" transform="translate(1.148 2.425)" fill="#fff"/>
      <path id="Path_58" data-name="Path 58" d="M10.063,23.016a7.675,7.675,0,0,0,1.975,6.132A27.009,27.009,0,0,0,14.8,21.7a10.867,10.867,0,0,0-.855-6.568c-.014-.042-3.516,3.875-3.883,7.887" transform="translate(0.978 1.621)" fill="#fff"/>
      <path id="Path_59" data-name="Path 59" d="M22.81,21.417a9.58,9.58,0,0,1-6.1-.519c-.053.007,2.978-3.543,6.666-4.266a7.064,7.064,0,0,1,5.919,1.424,20.928,20.928,0,0,1-6.484,3.361" transform="translate(1.631 1.766)" fill="#fff"/>
      <path id="Path_60" data-name="Path 60" d="M16.233,15.35a7.732,7.732,0,0,0,.651,6.533,30.568,30.568,0,0,0,4.36-7.053,11.317,11.317,0,0,0,.638-6.8c-.01-.044-4.422,3.335-5.648,7.321" transform="translate(1.544 0.86)" fill="#fff"/>
      <path id="Path_61" data-name="Path 61" d="M56.528,106.767l-.038-.734a44.408,44.408,0,0,1-17.728-2.681A47.093,47.093,0,0,1,23.52,94.166a50.137,50.137,0,0,1-16.4-32.952c-.967-10.52.077-19.823,3.1-27.649A36.92,36.92,0,0,1,26.482,14.349l-.362-.639A37.646,37.646,0,0,0,9.544,33.3c-3.069,7.935-4.128,17.349-3.15,27.984A50.867,50.867,0,0,0,23.037,94.717a47.775,47.775,0,0,0,15.478,9.325,45.109,45.109,0,0,0,18.014,2.726" transform="translate(0.59 1.469)" fill="#fff"/>
      <path id="Path_62" data-name="Path 62" d="M93.737,10.689a11.156,11.156,0,0,1,3.292,6.019A10.968,10.968,0,0,1,90.6,14.435a11.156,11.156,0,0,1-3.292-6.019,10.97,10.97,0,0,1,6.432,2.273" transform="translate(8.523 0.902)" fill="#fff"/>
      <path id="Path_63" data-name="Path 63" d="M79.71,91.04a11.732,11.732,0,0,0-2.1,6.407c-.007.043,4.642-1.459,6.631-4.73a8.236,8.236,0,0,0,.874-6.446,19.212,19.212,0,0,0-5.4,4.768" transform="translate(7.575 9.24)" fill="#fff"/>
      <path id="Path_64" data-name="Path 64" d="M83.376,99.975a7.982,7.982,0,0,1-5.8-3.609,25.728,25.728,0,0,1,8.244-1.133,10.5,10.5,0,0,1,6.213,2.676c.055.01-4.459,2.63-8.654,2.066" transform="translate(7.573 10.195)" fill="#fff"/>
      <path id="Path_65" data-name="Path 65" d="M86.906,87.571a11.529,11.529,0,0,0-.713,6.529c0,.044,4.049-2.18,5.311-5.675a8.257,8.257,0,0,0-.4-6.377,17.742,17.742,0,0,0-4.2,5.523" transform="translate(8.396 8.788)" fill="#fff"/>
      <path id="Path_66" data-name="Path 66" d="M92.27,95.583a7.838,7.838,0,0,1-6.147-2.509A23.441,23.441,0,0,1,93.655,90.6a10.312,10.312,0,0,1,6.416,1.529c.052,0-3.749,3.3-7.8,3.457" transform="translate(8.407 9.699)" fill="#fff"/>
      <path id="Path_67" data-name="Path 67" d="M93.093,82.971a11.46,11.46,0,0,0,.555,6.433c0,.043,3.439-2.8,4.014-6.4A8.244,8.244,0,0,0,96.108,76.9a16.859,16.859,0,0,0-3.015,6.076" transform="translate(9.065 8.236)" fill="#fff"/>
      <path id="Path_68" data-name="Path 68" d="M99.846,89.869a7.684,7.684,0,0,1-6.338-1.375,22.034,22.034,0,0,1,6.738-3.687,10.124,10.124,0,0,1,6.462.371c.048-.007-3.022,3.848-6.862,4.691" transform="translate(9.128 9.045)" fill="#fff"/>
      <path id="Path_69" data-name="Path 69" d="M98.221,77.423a11.317,11.317,0,0,0,1.7,6.141c.008.043,2.808-3.3,2.733-6.909a8.153,8.153,0,0,0-2.58-5.667,16.417,16.417,0,0,0-1.855,6.436" transform="translate(9.588 7.603)" fill="#fff"/>
      <path id="Path_70" data-name="Path 70" d="M106.059,83.057a7.531,7.531,0,0,1-6.371-.233,21.26,21.26,0,0,1,5.858-4.751A10.016,10.016,0,0,1,111.9,77.3c.043-.014-2.274,4.273-5.838,5.759" transform="translate(9.732 8.257)" fill="#fff"/>
      <path id="Path_71" data-name="Path 71" d="M102.245,71.112a11.132,11.132,0,0,0,2.723,5.676c.014.04,2.157-3.708,1.475-7.213a8.005,8.005,0,0,0-3.478-5.074,16.182,16.182,0,0,0-.72,6.611" transform="translate(9.971 6.909)" fill="#fff"/>
      <path id="Path_72" data-name="Path 72" d="M110.867,75.373a7.461,7.461,0,0,1-6.245.9,21,21,0,0,1,4.893-5.665,10.011,10.011,0,0,1,6.075-1.889c.04-.02-1.507,4.58-4.723,6.655" transform="translate(10.213 7.359)" fill="#fff"/>
      <path id="Path_73" data-name="Path 73" d="M105.13,64.224a10.832,10.832,0,0,0,3.616,5.059c.019.039,1.484-4,.237-7.317a7.813,7.813,0,0,0-4.244-4.352,16.113,16.113,0,0,0,.392,6.609" transform="translate(10.207 6.171)" fill="#fff"/>
      <path id="Path_74" data-name="Path 74" d="M114.226,67.027a7.444,7.444,0,0,1-5.956,1.994,21.115,21.115,0,0,1,3.839-6.416,10.063,10.063,0,0,1,5.636-2.945c.036-.025-.72,4.764-3.52,7.367" transform="translate(10.569 6.39)" fill="#fff"/>
      <path id="Path_75" data-name="Path 75" d="M106.842,56.947a10.564,10.564,0,0,0,4.376,4.318c.024.033.791-4.2-.976-7.236a7.631,7.631,0,0,0-4.878-3.523,16.144,16.144,0,0,0,1.477,6.441" transform="translate(10.286 5.41)" fill="#fff"/>
      <path id="Path_76" data-name="Path 76" d="M116.092,58.227a7.5,7.5,0,0,1-5.5,3.031,21.577,21.577,0,0,1,2.7-7,10.221,10.221,0,0,1,5.028-3.922c.032-.031.088,4.829-2.225,7.889" transform="translate(10.796 5.392)" fill="#fff"/>
      <path id="Path_77" data-name="Path 77" d="M107.32,49.465a10.272,10.272,0,0,0,5,3.469c.029.03.078-4.281-2.168-6.97a7.465,7.465,0,0,0-5.372-2.609,16.368,16.368,0,0,0,2.537,6.111" transform="translate(10.229 4.644)" fill="#fff"/>
      <path id="Path_78" data-name="Path 78" d="M116.423,49.2a7.558,7.558,0,0,1-4.881,3.986,22.217,22.217,0,0,1,1.472-7.4,10.354,10.354,0,0,1,4.248-4.794c.027-.035.914,4.771-.839,8.209" transform="translate(10.889 4.39)" fill="#fff"/>
      <path id="Path_79" data-name="Path 79" d="M106.507,41.973A10.041,10.041,0,0,0,112,44.512c.035.025-.655-4.257-3.332-6.533a7.347,7.347,0,0,0-5.726-1.635,16.822,16.822,0,0,0,3.568,5.63" transform="translate(10.049 3.885)" fill="#fff"/>
      <path id="Path_80" data-name="Path 80" d="M115.2,40.169a7.627,7.627,0,0,1-4.088,4.838,23.253,23.253,0,0,1,.151-7.618,10.487,10.487,0,0,1,3.3-5.541c.022-.039,1.761,4.592.64,8.321" transform="translate(10.822 3.411)" fill="#fff"/>
      <path id="Path_81" data-name="Path 81" d="M104.367,34.678a9.865,9.865,0,0,0,5.837,1.548c.041.02-1.408-4.126-4.471-5.93a7.271,7.271,0,0,0-5.936-.624,17.558,17.558,0,0,0,4.569,5.006" transform="translate(9.742 3.139)" fill="#fff"/>
      <path id="Path_82" data-name="Path 82" d="M112.41,31.365a7.664,7.664,0,0,1-3.121,5.561,24.774,24.774,0,0,1-1.26-7.637,10.638,10.638,0,0,1,2.167-6.141c.019-.041,2.629,4.293,2.214,8.217" transform="translate(10.545 2.479)" fill="#fff"/>
      <path id="Path_83" data-name="Path 83" d="M100.86,27.763a9.726,9.726,0,0,0,6.043.521c.046.014-2.183-3.888-5.582-5.171a7.189,7.189,0,0,0-6,.4,18.953,18.953,0,0,0,5.542,4.247" transform="translate(9.305 2.425)" fill="#fff"/>
      <path id="Path_84" data-name="Path 84" d="M108.015,23.016a7.676,7.676,0,0,1-1.975,6.132,27.009,27.009,0,0,1-2.764-7.451,10.857,10.857,0,0,1,.855-6.568c.014-.042,3.516,3.875,3.883,7.887" transform="translate(10.066 1.621)" fill="#fff"/>
      <path id="Path_85" data-name="Path 85" d="M95.948,21.417a9.574,9.574,0,0,0,6.1-.519c.053.007-2.977-3.543-6.665-4.266a7.064,7.064,0,0,0-5.919,1.424,20.928,20.928,0,0,0,6.484,3.361" transform="translate(8.733 1.766)" fill="#fff"/>
      <path id="Path_86" data-name="Path 86" d="M101.967,15.35a7.732,7.732,0,0,1-.651,6.533,30.569,30.569,0,0,1-4.36-7.053,11.317,11.317,0,0,1-.638-6.8c.01-.044,4.422,3.335,5.648,7.321" transform="translate(9.378 0.86)" fill="#fff"/>
      <path id="Path_87" data-name="Path 87" d="M65.6,106.767l.038-.734a44.4,44.4,0,0,0,17.727-2.681,47.087,47.087,0,0,0,15.244-9.186,50.137,50.137,0,0,0,16.4-32.952c.967-10.52-.077-19.823-3.1-27.649A36.92,36.92,0,0,0,95.646,14.349l.362-.639A37.646,37.646,0,0,1,112.585,33.3c3.068,7.935,4.127,17.349,3.149,27.984A50.861,50.861,0,0,1,99.092,94.717a47.775,47.775,0,0,1-15.478,9.325A45.109,45.109,0,0,1,65.6,106.767" transform="translate(6.404 1.469)" fill="#fff"/>
      <path id="Path_88" data-name="Path 88" d="M59.011,90.357l-29.486-12.9a.976.976,0,0,1-.583-.9V31.532a.968.968,0,0,1,1.352-.9l29.488,12.9a.978.978,0,0,1,.582.895V89.462a.969.969,0,0,1-1.352.9" transform="translate(2.825 3.273)" fill="#fff"/>
      <path id="Path_89" data-name="Path 89" d="M59.74,42.375l-23.664-15.9a.483.483,0,0,0-.752.405v4.5a.491.491,0,0,0,.292.448Z" transform="translate(3.448 2.827)" fill="#fff"/>
      <path id="Path_90" data-name="Path 90" d="M59.177,39.906,41.918,23.283a.484.484,0,0,0-.818.353v4.034a.487.487,0,0,0,.218.407Z" transform="translate(4.012 2.479)" fill="#fff"/>
      <path id="Path_91" data-name="Path 91" d="M61.421,90.357l29.486-12.9a.978.978,0,0,0,.583-.9V31.532a.968.968,0,0,0-1.352-.9l-29.488,12.9a.976.976,0,0,0-.582.895V89.462a.969.969,0,0,0,1.352.9" transform="translate(5.864 3.273)" fill="#fff"/>
      <path id="Path_92" data-name="Path 92" d="M60.069,42.375l23.664-15.9a.483.483,0,0,1,.752.405v4.5a.491.491,0,0,1-.292.448Z" transform="translate(5.864 2.827)" fill="#fff"/>
      <path id="Path_93" data-name="Path 93" d="M60.069,39.906,77.328,23.283a.484.484,0,0,1,.818.353v4.034a.486.486,0,0,1-.217.407Z" transform="translate(5.864 2.479)" fill="#fff"/>
    </g>
  </g>
</svg>
