<svg id="SvgjsSvg1001" width="288" height="288" xmlns="http://www.w3.org/2000/svg" version="1.1" xmlnsXlink="http://www.w3.org/1999/xlink" xmlnsSvgjs="http://svgjs.com/svgjs"><defs id="SvgjsDefs1002"></defs><g id="SvgjsG1008"><svg xmlns="http://www.w3.org/2000/svg" enable-background="new 0 0 512 512" viewBox="0 0 512 512" width="288" height="288"><path fill="#187208" d="M422.4,358.4c-42.4,0-76.8,34.4-76.8,76.8S380,512,422.4,512c42.4,0,76.8-34.4,76.8-76.8
	C499.2,392.8,464.8,358.4,422.4,358.4z M457,444.2c-5,5-13.1,5-18.1,0l-3.8-3.8v20.3c0,7.1-5.7,12.8-12.8,12.8
	c-7.1,0-12.8-5.7-12.8-12.8v-20.3l-3.8,3.8c-5.1,4.9-13.2,4.8-18.1-0.3c-4.8-5-4.8-12.9,0-17.8l25.6-25.6c0.3-0.3,0.6-0.5,0.9-0.8
	l0.3-0.2c0.2-0.2,0.4-0.3,0.7-0.5l0.3-0.2c0.3-0.2,0.6-0.4,1-0.6l0.2-0.1c0.3-0.1,0.6-0.3,0.8-0.4l0.3-0.1l0.8-0.3l0.3-0.1
	c0.4-0.1,0.7-0.2,1.1-0.3l0,0c0.4-0.1,0.7-0.1,1.1-0.2h0.2c0.3,0,0.7,0,1,0h0.2c0.8,0,1.5,0.1,2.3,0.2l0.3,0.1l0.8,0.2l0.4,0.1
	l0.7,0.2l0.4,0.1l0,0c0.3,0.1,0.6,0.3,1,0.4l0.4,0.2l0.7,0.4l0.3,0.2c0.3,0.2,0.5,0.4,0.8,0.6l0.1,0.1c0.3,0.2,0.6,0.5,0.9,0.8
	l0.1,0.1l25.6,25.6C462.1,431.2,462,439.3,457,444.2z M320,435.2c0-56.6,45.8-102.4,102.4-102.4l0,0V153.6L268.9,0H76.8
	c-35.3,0-64,28.7-64,64v384c0,35.3,28.7,64,64,64h278C332.7,492.6,320,464.6,320,435.2z M256,25.6l140.8,140.8H320
	c-35.3,0-64-28.7-64-64V25.6z M128,243.2h102.4c7.1,0,12.8,5.7,12.8,12.8s-5.7,12.8-12.8,12.8c0,0,0,0,0,0H128
	c-7.1,0-12.8-5.7-12.8-12.8C115.2,248.9,120.9,243.2,128,243.2L128,243.2L128,243.2z M128,294.4h179.2c7.1,0,12.8,5.7,12.8,12.8
	c0,7.1-5.7,12.8-12.8,12.8H128c-7.1,0-12.8-5.7-12.8-12.8C115.2,300.1,120.9,294.4,128,294.4L128,294.4z M306.8,371.2H128
	c-7.1,0-12.8-5.7-12.8-12.8c0-7.1,5.7-12.8,12.8-12.8l0,0h178.8c7.1,0,12.8,5.7,12.8,12.8C319.6,365.5,313.9,371.2,306.8,371.2z" class="color186dd6 svgShape"></path></svg></g></svg>