  <svg width="0" height="0" class="hidden">
        <symbol version="1.1" xmlns="http://www.w3.org/2000/svg" viewBox="0 0 1024 1024" id="change-password">
            <path d="M288 416v-96a128 128 0 0 1 256 0v96h64v-96c0-106-86-192-192-192s-192 86-192 192v96zM512 704h-64v-64l384-384 64 64-384 384z"></path>
            <path d="M544 736H416V608l160-160H192a64.19 64.19 0 0 0-64 64v320a64.19 64.19 0 0 0 64 64h448a64.19 64.19 0 0 0 64-64V576z"></path>
        </symbol>
        <symbol version="1.1" id="check-slot" xmlns="http://www.w3.org/2000/svg" xmlns:xlink="http://www.w3.org/1999/xlink" x="0px" y="0px" xml:space="preserve" viewBox="0 0 1000 1000">
            <circle cx="501.3" cy="499.5" r="488.9"></circle>
            <g>
                <g transform="translate(0.000000,511.000000) scale(0.100000,-0.100000)">
                    <path d="M5293.5,2922.7c-193.2-65.8-358.7-227.1-420.3-407.6c-14.9-40.3-25.5-135.9-25.5-214.4
      c0-554.1,728.1-834.3,1154.8-443.7c152.8,140.1,210.1,263.2,212.3,454.3c2.1,188.9-72.2,352.4-214.4,475.5
      C5819.9,2948.2,5524.9,3003.4,5293.5,2922.7z"></path>
                    <path d="M4688.5,1075.9c-125.2-17-322.7-74.3-577.4-169.8c-254.7-93.4-261.1-97.6-282.3-171.9
      c-29.7-104-50.9-237.8-38.2-237.8c6.4,0,65.8,19.1,135.9,44.6c155,53.1,411.8,59.4,526.5,10.6c97.6-40.3,140.1-133.8,140.1-309.9
      c0-178.3-40.3-356.6-231.4-1035.9c-191.1-668.7-222.9-842.8-210.2-1091.1c6.4-144.3,21.2-197.4,70-288.7
      c116.8-216.5,316.3-343.9,605-388.5c305.7-46.7,592.3,6.4,1072,199.5l169.8,67.9l38.2,144.3c21.2,80.7,36.1,150.7,31.8,155
      c-4.2,4.2-70-12.7-144.3-36.1c-161.3-51-486.1-48.8-568.9,2.1c-72.2,48.8-110.4,150.7-110.4,303.6
      c0,186.8,36.1,343.9,233.5,1044.4c178.3,630.5,222.9,864,208,1091.1c-25.4,348.1-254.7,590.1-624.1,658.1
      C5013.3,1090.8,4818,1092.9,4688.5,1075.9z"></path>
                </g>
            </g>
        </symbol>
        <symbol xmlns="http://www.w3.org/2000/svg" viewBox="0 0 576 512" id="check-to-slot">
            <path d="M480 80C480 53.49 458.5 32 432 32h-288C117.5 32 96 53.49 96 80V384h384V80zM378.9 166.8l-88 112c-4.031 5.156-10 8.438-16.53 9.062C273.6 287.1 272.7 287.1 271.1 287.1c-5.719 0-11.21-2.019-15.58-5.769l-56-48C190.3 225.6 189.2 210.4 197.8 200.4c8.656-10.06 23.81-11.19 33.84-2.594l36.97 31.69l72.53-92.28c8.188-10.41 23.31-12.22 33.69-4.062C385.3 141.3 387.1 156.4 378.9 166.8zM528 288H512v112c0 8.836-7.164 16-16 16h-416C71.16 416 64 408.8 64 400V288H48C21.49 288 0 309.5 0 336v96C0 458.5 21.49 480 48 480h480c26.51 0 48-21.49 48-48v-96C576 309.5 554.5 288 528 288z"></path>
        </symbol>
        <symbol id="computer-user" xmlns="http://www.w3.org/2000/svg" viewBox="0 0 107.47 122.88">
            <defs></defs>
            <title>computer-user</title>
            <path d="M53.67,108.33a5.6,5.6,0,1,1-5.59,5.6,5.6,5.6,0,0,1,5.59-5.6ZM39.3,76.42c7.28,8.18,23.77,6.74,29.86,0a56.89,56.89,0,0,1-4.22-5.7l-.84-1.22a17.5,17.5,0,0,1-10.13,3,17,17,0,0,1-11.08-4c-.83,2.48-2,5.89-3.22,7.52a1.8,1.8,0,0,1-.37.36ZM10,90.92a4,4,0,0,0-3.73,4.66l3.53,27.3h-9c0-14.58-5.17-32.46,10.09-41,5.68-3.17,20.32-4.24,26.7-8.43a54.08,54.08,0,0,0,2.71-7.08c.07-.22-.05.14.06-.19a56,56,0,0,1-6.1-8.43L29,49.42c-1.93-2.87-2.93-5.5-3-7.65A6,6,0,0,1,26.57,39a5.07,5.07,0,0,1,1.81-2.1,6.58,6.58,0,0,1,1.27-.65,133.75,133.75,0,0,1-.25-15,20.68,20.68,0,0,1,.65-3.41C32,11,37.89,6,44.65,3.66,47.93,2.53,46.66-.17,50,0c7.86.43,20,5.49,24.63,10.86,6.52,7.52,4.84,16.78,4.62,26h0A3.83,3.83,0,0,1,82,39.69c.42,1.66,0,4-1.45,7.19h0s0,.11-.09.17l-6,9.87c-2.31,3.81-4.66,7.62-7.79,10.56l-.16.14,1,1.4c1,1.53,2.22,3.27,3.32,4.63,6.52,4,20.85,5.14,26.46,8.26,14,7.82,9.23,27.13,10,41H98.38l3.53-27.3a4,4,0,0,0-3.73-4.66ZM32.68,38.71A5.25,5.25,0,0,0,30,39.4a2.2,2.2,0,0,0-.76.88A3.23,3.23,0,0,0,29,41.69c.05,1.6.89,3.69,2.51,6.1l0,0h0l5.26,8.37c2.11,3.35,4.33,6.77,7.07,9.28A14.45,14.45,0,0,0,54,69.55a14.88,14.88,0,0,0,10.68-4.24c2.84-2.66,5.07-6.29,7.28-9.93l5.92-9.76c1.11-2.52,1.51-4.21,1.26-5.19-.15-.59-.8-.88-1.91-.94q-.36,0-.72,0a8,8,0,0,0-.83,0,1.75,1.75,0,0,1-.46,0,8.09,8.09,0,0,1-1.62-.09l2-9c-15.06,2.37-26.33-8.82-42.25-2.24L34.5,38.79a9,9,0,0,1-1.82-.08Z"></path>
        </symbol>
        <symbol version="1.1" id="date-and-time" xmlns="http://www.w3.org/2000/svg" xmlns:xlink="http://www.w3.org/1999/xlink" x="0px" y="0px" xml:space="preserve" viewBox="0 0 122.88 119.97">
            <g>
                <path d="M69.76,4.06c0-2.23,2.2-4.06,4.95-4.06s4.95,1.81,4.95,4.06V21.8c0,2.23-2.2,4.06-4.95,4.06s-4.95-1.81-4.95-4.06V4.06 L69.76,4.06L69.76,4.06z M14.37,78.05h11.34c0.72,0,1.31,0.59,1.31,1.31v8.38c0,0.72-0.59,1.31-1.31,1.31H14.37 c-0.72,0-1.31-0.59-1.31-1.31v-8.38C13.06,78.63,13.65,78.05,14.37,78.05L14.37,78.05z M57.79,54.17h11.34 c0.35,0,0.66,0.14,0.9,0.36c-4.45,2.78-8.31,6.4-11.37,10.65h-0.87c-0.72,0-1.31-0.59-1.31-1.31v-8.38 C56.48,54.76,57.07,54.17,57.79,54.17L57.79,54.17z M36.08,54.17h11.34c0.72,0,1.31,0.59,1.31,1.31v8.38 c0,0.72-0.59,1.31-1.31,1.31H36.08c-0.72,0-1.31-0.59-1.31-1.31v-8.38C34.77,54.76,35.36,54.17,36.08,54.17L36.08,54.17z M14.37,54.17h11.34c0.72,0,1.31,0.59,1.31,1.31v8.38c0,0.72-0.59,1.31-1.31,1.31H14.37c-0.72,0-1.31-0.59-1.31-1.31v-8.38 C13.06,54.76,13.65,54.17,14.37,54.17L14.37,54.17z M36.08,78.05h11.34c0.72,0,1.31,0.59,1.31,1.31v8.38 c0,0.72-0.59,1.31-1.31,1.31H36.08c-0.72,0-1.31-0.59-1.31-1.31v-8.38C34.77,78.63,35.36,78.05,36.08,78.05L36.08,78.05z M103.49,59.54c11.71,4.85,19.39,16.28,19.39,29.02c0,8.67-3.52,16.53-9.2,22.21c-5.68,5.68-13.53,9.2-22.21,9.2 c-8.67,0-16.52-3.52-22.21-9.2c-5.68-5.69-9.2-13.54-9.2-22.21c0-12.64,7.86-24.43,19.55-29.23 C86.86,56.37,96.29,56.55,103.49,59.54L103.49,59.54L103.49,59.54z M86.64,87.72c0.39-0.43,0.87-0.8,1.39-1.08V72.98 c0-1.39,1.13-2.52,2.52-2.52c1.39,0,2.53,1.13,2.53,2.52v13.66c0.92,0.5,1.68,1.25,2.17,2.17h9.76c1.4,0,2.52,1.13,2.52,2.52 s-1.13,2.52-2.52,2.52h-9.76c-0.9,1.68-2.66,2.82-4.7,2.82c-1.6,0-3.03-0.71-4.01-1.82C84.73,92.78,84.82,89.69,86.64,87.72 L86.64,87.72L86.64,87.72z M110.12,70.41c-13.01-13.01-34.95-9.33-42.56,7.05c-1.56,3.37-2.44,7.13-2.44,11.09 c0,7.28,2.95,13.87,7.72,18.64c4.77,4.77,11.36,7.72,18.64,7.72c7.28,0,13.87-2.96,18.64-7.72c4.77-4.77,7.72-11.36,7.72-18.64 c0-4.13-0.95-8.04-2.64-11.52C113.91,74.4,112.19,72.48,110.12,70.41L110.12,70.41L110.12,70.41z M25.33,4.06 c0-2.23,2.2-4.06,4.95-4.06c2.74,0,4.95,1.81,4.95,4.06V21.8c0,2.23-2.21,4.06-4.95,4.06c-2.74,0-4.95-1.81-4.95-4.06V4.06 L25.33,4.06L25.33,4.06z M5.45,38.79h94.21V18.37c0-0.7-0.28-1.31-0.73-1.76c-0.45-0.45-1.09-0.73-1.76-0.73h-9.03 c-1.51,0-2.74-1.23-2.74-2.74c0-1.51,1.23-2.74,2.74-2.74h9.03c2.21,0,4.2,0.89,5.65,2.34c1.45,1.45,2.34,3.44,2.34,5.65v32.43 c-1.8-0.62-3.65-1.12-5.56-1.49v-5.07h0.06H5.45v52.91c0,0.7,0.28,1.31,0.73,1.76c0.45,0.45,1.09,0.73,1.76,0.73h44.77 c0.51,1.9,1.15,3.76,1.92,5.54H7.99c-2.2,0-4.2-0.89-5.65-2.34C0.89,101.4,0,99.42,0,97.21V18.39c0-2.2,0.89-4.19,2.34-5.65 c1.45-1.45,3.44-2.34,5.65-2.34h9.64c1.51,0,2.74,1.23,2.74,2.74c0,1.51-1.23,2.74-2.74,2.74H7.99c-0.7,0-1.31,0.28-1.76,0.73 c-0.45,0.45-0.73,1.09-0.73,1.76v20.43H5.45V38.79L5.45,38.79z M43.13,15.87c-1.51,0-2.74-1.23-2.74-2.74 c0-1.51,1.23-2.74,2.74-2.74h18.39c1.51,0,2.74,1.23,2.74,2.74c0,1.51-1.23,2.74-2.74,2.74H43.13L43.13,15.87L43.13,15.87z"></path>
            </g>
        </symbol>
        <symbol xmlns="http://www.w3.org/2000/svg" viewBox="0 0 105.16 122.88" id="delete">
            <title>delete</title>
            <path fill-rule="evenodd" d="M11.17,37.16H94.65a8.4,8.4,0,0,1,2,.16,5.93,5.93,0,0,1,2.88,1.56,5.43,5.43,0,0,1,1.64,3.34,7.65,7.65,0,0,1-.06,1.44L94,117.31v0l0,.13,0,.28v0a7.06,7.06,0,0,1-.2.9v0l0,.06v0a5.89,5.89,0,0,1-5.47,4.07H17.32a6.17,6.17,0,0,1-1.25-.19,6.17,6.17,0,0,1-1.16-.48h0a6.18,6.18,0,0,1-3.08-4.88l-7-73.49a7.69,7.69,0,0,1-.06-1.66,5.37,5.37,0,0,1,1.63-3.29,6,6,0,0,1,3-1.58,8.94,8.94,0,0,1,1.79-.13ZM5.65,8.8H37.12V6h0a2.44,2.44,0,0,1,0-.27,6,6,0,0,1,1.76-4h0A6,6,0,0,1,43.09,0H62.46l.3,0a6,6,0,0,1,5.7,6V6h0V8.8h32l.39,0a4.7,4.7,0,0,1,4.31,4.43c0,.18,0,.32,0,.5v9.86a2.59,2.59,0,0,1-2.59,2.59H2.59A2.59,2.59,0,0,1,0,23.62V13.53H0a1.56,1.56,0,0,1,0-.31v0A4.72,4.72,0,0,1,3.88,8.88,10.4,10.4,0,0,1,5.65,8.8Zm42.1,52.7a4.77,4.77,0,0,1,9.49,0v37a4.77,4.77,0,0,1-9.49,0v-37Zm23.73-.2a4.58,4.58,0,0,1,5-4.06,4.47,4.47,0,0,1,4.51,4.46l-2,37a4.57,4.57,0,0,1-5,4.06,4.47,4.47,0,0,1-4.51-4.46l2-37ZM25,61.7a4.46,4.46,0,0,1,4.5-4.46,4.58,4.58,0,0,1,5,4.06l2,37a4.47,4.47,0,0,1-4.51,4.46,4.57,4.57,0,0,1-5-4.06l-2-37Z"></path>
        </symbol>
        <symbol version="1.1" id="down-arrow" xmlns="http://www.w3.org/2000/svg" xmlns:xlink="http://www.w3.org/1999/xlink" x="0px" y="0px" xml:space="preserve" viewBox="0 0 330 330">
            <path id="XMLID_225_" d="M325.607,79.393c-5.857-5.857-15.355-5.858-21.213,0.001l-139.39,139.393L25.607,79.393
  c-5.857-5.857-15.355-5.858-21.213,0.001c-5.858,5.858-5.858,15.355,0,21.213l150.004,150c2.813,2.813,6.628,4.393,10.606,4.393
  s7.794-1.581,10.606-4.394l149.996-150C331.465,94.749,331.465,85.251,325.607,79.393z"></path>
        </symbol>
        <symbol version="1.1" xmlns="http://www.w3.org/2000/svg" xmlns:xlink="http://www.w3.org/1999/xlink" x="0px" y="0px" enable-background="new 0 0 1000 1000" xml:space="preserve" viewBox="0 0 1000 1000" id="download_certificate">
            <metadata>Svg Vector Icons : http://www.onlinewebfonts.com/icon</metadata>
            <g>
                <g transform="translate(0.000000,511.000000) scale(0.100000,-0.100000)">
                    <path d="M575.3,4003.3c-191.6-65.1-325.8-187.8-423.5-385.2L100,3512.7V820.2v-2692.6l51.7-109.2c103.5-220.4,308.5-375.6,551.9-417.8c86.2-13.4,632.4-19.2,1761.2-15.3l1636.6,5.8l237.6,348.8l237.6,350.7l-34.5,164.8c-32.6,161-38.3,170.6-157.1,299l-122.7,132.2l19.2,185.9c11.5,107.3,11.5,199.3,1.9,220.4c-15.3,30.7-90.1,32.6-1155.6,32.6H1987.7v277.9v277.9h1147.9c900.7,0,1149.8,5.8,1155.6,24.9c5.7,11.5,0,101.6-9.6,199.3l-19.2,176.3l111.1,124.6l109.2,126.5H3235.3H1987.7v287.5v287.5h1462.2h1462.2l82.4,145.6c46,80.5,101.6,151.4,124.6,159.1c21.1,9.6,103.5,26.8,180.1,40.3c132.2,24.9,149.5,32.6,276,147.6c147.6,132.2,151.4,132.2,389,103.5c80.5-9.6,132.2-7.7,172.5,9.6c47.9,21.1-304.7,24.9-2044.8,26.8H1987.7v287.5V2315h3008.8h3008.8v-287.5V1740h-674.6c-567.2-1.9-668.8-5.7-628.6-26.8c36.4-19.2,88.2-21.1,233.8-5.7l184,19.2l136.1-124.6c136.1-122.7,138-124.6,316.2-157.1l178.2-34.5l90.1-155.2c84.3-149.5,93.9-161,249.1-251.1l162.9-93.9l34.5-174.4c32.6-168.6,38.3-178.2,159.1-318.1L8570.5,274l-17.3-182.1l-17.2-184l70.9-149.5c38.3-82.4,69-159.1,69-170.5c0-9.6-30.7-88.2-70.9-172.5l-69-155.2l17.2-189.7c13.4-147.6,11.5-193.6-7.6-208.9c-13.4-11.5-67.1-70.9-120.7-134.2c-88.2-99.7-101.6-130.3-134.1-274l-36.4-164.8l241.5-354.5l243.4-356.4l289.4,7.7c314.3,9.6,417.8,36.4,571.1,141.8c92,63.2,197.4,207,253,339.2l40.2,99.7l5.7,2568c3.8,1809.1,0,2604.4-15.3,2690.6c-44.1,251.1-191.6,448.4-417.8,553.9l-109.2,51.7l-4340.7,3.8C878.1,4037.8,671.1,4037.8,575.3,4003.3z"></path>
                    <path d="M6261.3,1502.4c-141.8-61.3-145.6-63.2-302.8-46l-159.1,19.2l-90.1-84.3c-128.4-120.7-168.6-141.8-314.3-168.6c-141.8-24.9-145.6-28.8-243.4-195.5c-59.4-99.7-88.2-128.4-203.1-191.6c-72.8-42.2-136.1-78.6-138-80.5c-1.9-1.9-19.2-72.8-36.4-155.2c-30.7-139.9-44.1-164.8-143.7-277.9l-111.2-124.6l19.2-157.1c19.2-157.1,19.2-159.1-46-304.7l-67.1-147.5l67.1-145.7c65.2-145.6,65.2-145.6,47.9-308.5l-19.2-162.9l109.2-115c99.7-103.5,113.1-126.5,134.1-239.6c13.4-69,26.8-139.9,32.6-157.2c5.7-19.2,72.8-69,149.5-113.1c128.4-72.8,147.6-92,220.4-220.4c44.1-78.6,84.3-141.8,88.2-141.8c1.9,0,72.8-13.4,155.2-30.7c136.1-28.7,161-40.2,266.4-136.1l115-103.5l172.5,11.5c164.8,11.5,178.2,9.6,302.8-46c72.8-32.6,139.9-59.4,151.4-59.4c9.6,0,78.6,26.8,153.3,59.4c128.4,55.6,143.7,59.4,302.8,46l168.6-13.4l115,105.4c97.8,90.1,132.2,109.2,226.1,128.4c197.4,38.3,203.1,42.2,287.5,184c65.2,111.1,95.8,143.7,193.6,201.2c168.6,97.7,172.5,101.6,197.4,243.4c26.8,147.6,38.3,168.6,162.9,306.6l90.1,99.7l-17.2,159.1c-19.2,155.2-17.2,159.1,47.9,304.7l65.2,145.6l-67.1,151.4c-65.2,149.5-67.1,149.5-47.9,310.4l19.2,159.1L8208.3,320c-101.6,103.5-109.2,116.9-141.8,270.2L8032,753.1l-141.8,80.5c-126.5,70.9-147.6,92-222.3,222.3l-82.4,141.8l-147.6,24.9c-138,23-155.2,32.6-277.9,138l-132.2,113.1l-155.2-17.2c-155.3-19.2-157.1-19.2-300.9,46c-78.6,36.4-147.6,65.2-155.2,65.2C6410.7,1567.6,6339.8,1536.9,6261.3,1502.4z M6790.2,885.3C7784.8,597.8,8110.6-630.6,7382.4-1355c-176.3-174.4-335.4-276-555.8-348.8c-134.2-44.1-184-49.8-412-51.7c-233.8,0-274,5.7-412,53.7c-553.9,189.7-914.1,659.2-942.9,1228.4c-13.4,251,24.9,425.4,139.9,657.3c136.1,277.9,398.6,530.8,670.7,645.8C6146.3,946.6,6504.6,969.6,6790.2,885.3z"></path>
                    <path d="M6184.6,655.3C5684.4,548,5322.2,101.5,5322.2-406.3c0-310.5,97.7-538.5,325.8-768.5c235.7-237.6,492.5-337.3,824.1-318.1c226.1,11.5,377.5,63.2,565.4,189.7c298.9,199.3,469.5,521.2,469.5,887.3c0,318.1-92,544.2-316.2,768.5C6922.4,622.8,6552.6,735.8,6184.6,655.3z M6947.3,19.1c76.7-57.5,138-115,134.1-128.4c-7.7-28.8-634.3-850.9-649.6-850.9c-15.4-1.9-676.5,494.4-684.2,513.6c-5.7,15.4,216.5,310.5,235.7,312.4c7.7,0,92-59.4,189.7-134.2l178.2-134.2l208.9,274c115,151.4,218.5,268.3,228.1,262.6C6799.8,128.3,6870.7,76.6,6947.3,19.1z"></path>
                    <path d="M4486.7-2280.6c-189.7-281.7-345-513.6-343-515.5c0-1.9,199.3-65.1,442.7-141.8c302.8-93.9,454.2-149.5,486.8-182.1c26.8-24.9,168.7-191.6,316.2-369.9c147.6-178.2,272.1-325.8,277.9-325.8c5.8,0,159.1,218.5,339.2,488.7l331.5,486.8l-145.6,220.4c-122.7,182.1-153.3,218.5-187.8,210.8c-23-3.8-88.2-13.4-145.6-19.2l-105.4-11.5l-126.5,115c-111.2,101.6-141.8,118.8-258.7,143.7c-72.8,17.3-151.4,34.5-174.4,40.3c-26.8,5.7-70.9,61.3-126.5,157.1c-76.7,134.2-162.9,218.5-218.5,216.5C4841.2-1768.9,4678.3-1998.9,4486.7-2280.6z"></path>
                    <path d="M7901.7-1805.3c-30.7-19.2-93.9-99.7-139.9-180.2c-90.1-157.1-82.4-153.3-333.4-203.1c-78.6-15.3-122.7-36.4-162.9-78.6c-30.7-32.6-88.2-84.3-126.5-115l-70.9-57.5l-164.8,21.1l-164.8,21.1l-149.5-69c-172.5-76.7-176.3-76.7-252.9-36.4c-32.6,15.3-63.3,24.9-67.1,21.1c-9.6-7.7,833.6-1261,881.5-1310.8c17.2-19.2,90.1,57.5,329.6,345l306.6,367.9l431.2,132.2c235.7,72.8,438.9,138,450.4,143.7c24.9,13.4-659.2,1036.8-691.8,1034.8C7966.9-1768.9,7932.4-1786.2,7901.7-1805.3z"></path>
                </g>
            </g>
        </symbol>
        <symbol version="1.1" xmlns="http://www.w3.org/2000/svg" xmlns:xlink="http://www.w3.org/1999/xlink" x="0px" y="0px" xml:space="preserve" viewBox="0 0 576 512" id="edit">
            <path d="M402.3,344.9l32-32c5-5,13.7-1.5,13.7,5.7V464c0,26.5-21.5,48-48,48H48c-26.5,0-48-21.5-48-48V112
  c0-26.5,21.5-48,48-48h273.5c7.1,0,10.7,8.6,5.7,13.7l-32,32c-1.5,1.5-3.5,2.3-5.7,2.3H48v352h352V350.5
  C400,348.4,400.8,346.4,402.3,344.9z M558.9,143.1L296.3,405.7l-90.4,10c-26.2,2.9-48.5-19.2-45.6-45.6l10-90.4L432.9,17.1
  c22.9-22.9,59.9-22.9,82.7,0l43.2,43.2C581.7,83.2,581.7,120.3,558.9,143.1L558.9,143.1z M460.1,174L402,115.9L216.2,301.8
  l-7.3,65.3l65.3-7.3L460.1,174z M524.9,94.3l-43.2-43.2c-4.1-4.1-10.8-4.1-14.8,0L436,82l58.1,58.1l30.9-30.9
  C529,105,529,98.4,524.9,94.3z"></path>
        </symbol>
        <symbol xmlns="http://www.w3.org/2000/svg" version="1.0" viewBox="40 -1 170 250" id="Rupee_symbol">
            <path fill="#010101" d="M153 23h41l15-23H55L40 23h26c27 0 52 2 62 25H55L40 71h91v1c0 17-14 43-60 43H48v22l90 113h41L85 133c39-2 75-24 80-62h29l15-23h-45c-1-9-5-18-11-25z"></path>
        </symbol>
        <symbol version="1.1" xmlns="http://www.w3.org/2000/svg" xmlns:xlink="http://www.w3.org/1999/xlink" x="0px" y="0px" enable-background="new 0 0 1000 1000" xml:space="preserve" viewBox="0 0 1000 1000" id="logout">
            <metadata>Svg Vector Icons : http://www.onlinewebfonts.com/icon</metadata>
            <g>
                <g transform="translate(0.000000,511.000000) scale(0.100000,-0.100000)">
                    <path d="M295.2,4895.9c-65.1-32.5-114.9-80.2-145.3-136.6l-49.9-86.7V942.6c0-3608.5,2.2-3732.1,41.2-3821c28.2-60.7,69.4-106.2,136.6-143.1c2459.1-1390,2990.4-1687.1,3049-1698c101.9-21.7,251.6,43.4,325.3,138.8l58.6,75.9l6.5,711.3l6.5,711.3l1446.4,6.5c1413.9,6.5,1448.6,6.5,1522.3,52c41.2,23.9,97.6,75.9,123.6,117.1l49.9,71.6v1177.5v1179.7h-336.1h-336.1v-954.2v-954.2H4957.6H3721.5l-4.3,2728l-6.5,2730.2l-54.2,69.4c-39,49.9-314.4,219-932.5,568.2c-483.6,275.4-893.4,507.4-910.8,518.3c-19.5,13,837.1,21.7,2175.1,21.7h2205.4V3024.5V1799.2h336.1h336.1V3250v1448.6l-47.7,71.6c-28.2,39-78,93.2-110.6,117.1l-60.7,45.5l-3127.1,6.5l-3127.1,4.3L295.2,4895.9z"></path>
                    <path d="M7653.1,2180.9l-60.7-52l-6.5-490.1l-6.5-490.1h-915.1c-544.3,0-954.2-10.8-1012.7-23.9c-229.9-52-379.5-236.4-379.5-464.1c2.2-195.2,88.9-338.3,260.2-429.4c84.6-45.5,110.6-47.7,1066.9-54.2l980.2-6.5l6.5-487.9l6.5-490.1l73.7-65c60.7-54.2,86.7-62.9,145.3-54.2c88.9,15.2,2021.1,1409.6,2068.8,1494.1c21.7,43.4,26,75.9,10.8,138.8c-19.5,75.9-82.4,125.8-1017.1,804.5c-889.1,644.1-1006.2,722.1-1077.8,722.1C7739.8,2232.9,7694.3,2215.6,7653.1,2180.9z"></path>
                </g>
            </g>
        </symbol>
        <symbol version="1.1" id="online-payment-method" xmlns="http://www.w3.org/2000/svg" xmlns:xlink="http://www.w3.org/1999/xlink" x="0px" y="0px" xml:space="preserve" viewBox="0 0 489.703 489.703">
            <g>
                <g id="Icons_28_">
                    <g>
                        <path d="M306.755,337.171l-47.131-47.122c-0.337-0.34-0.56-0.716-0.867-1.056H48.164V101.28h312.52v29.07l16.923-16.929
        c7.826-7.834,18.26-12.158,29.334-12.158c0.645,0,1.256,0.154,1.9,0.186v-7.317c0-22.615-18.385-41.029-41.01-41.029H41.011
        C18.408,53.103,0,71.517,0,94.132v202.012c0,22.615,18.408,41.028,41.011,41.028h117.24v51.994h-37.552
        c-9.354,0-16.936,7.583-16.936,16.947v13.547c0,9.364,7.581,16.941,16.936,16.941H288.13c9.337,0,16.917-7.578,16.917-16.941
        v-13.549c0-9.364-7.58-16.947-16.917-16.947h-37.553v-51.993H306.755z"></path>
                        <path d="M486.971,209.53l-36.731-36.71L319.043,304.057l36.696,36.688c1.815,1.83,4.219,2.746,6.616,2.746
        c2.395,0,4.783-0.916,6.604-2.746L486.971,222.76c1.752-1.747,2.732-4.121,2.732-6.619
        C489.704,213.663,488.723,211.28,486.971,209.53z"></path>
                        <path d="M400.325,136.124L282.331,254.101c-1.759,1.755-2.753,4.13-2.753,6.627c0,2.48,0.994,4.854,2.753,6.61l14.907,14.917
        l131.231-131.222l-14.926-14.909c-1.805-1.835-4.202-2.746-6.604-2.746C404.542,133.378,402.144,134.289,400.325,136.124z"></path>
                    </g>
                </g>
            </g>
        </symbol>
        <symbol version="1.1" id="submit-ticket" xmlns="http://www.w3.org/2000/svg" xmlns:xlink="http://www.w3.org/1999/xlink" x="0px" y="0px" xml:space="preserve" viewBox="0 0 64 64">
            <path d="M62,43v-9H44v28h18v-9c-2.8,0-5-2.2-5-5S59.2,43,62,43z"></path>
            <path d="M2,62h40V34H2V62z M16,41h22c0.6,0,1,0.4,1,1s-0.4,1-1,1H16c-0.6,0-1-0.4-1-1S15.4,41,16,41z M6,47h32
  c0.6,0,1,0.4,1,1s-0.4,1-1,1H6c-0.6,0-1-0.4-1-1S5.4,47,6,47z M6,53h32c0.6,0,1,0.4,1,1s-0.4,1-1,1H6c-0.6,0-1-0.4-1-1S5.4,53,6,53z
  "></path>
            <g>
                <path d="M21.7,32.1c-0.5-0.6-1-1.3-1.4-2.1c-2.7-5.2-0.8-11.6,4.3-14.3c5.1-2.7,11.5-0.6,14.2,4.6
    c2.1,3.9,1.4,8.6-1.2,11.7H44c4.7-5.8,7-13.3,8.7-18.8C44.2,10,32.8,6.7,22.6,12c-7.2,3.8-11.2,10.5-14.5,20.1H21.7z"></path>
                <g>
                    <path d="M27.8,22.9c-0.4-0.8-0.5-1.7-0.3-2.5c-0.3,0.1-0.5,0.2-0.8,0.3c-3,1.6-4.1,5.3-2.5,8.3c1.6,3,5.3,4.2,8.3,2.7
      c3-1.6,4.1-5.3,2.5-8.3c-0.1-0.2-0.3-0.5-0.4-0.7c-0.3,0.7-0.9,1.4-1.7,1.8C31,25.5,28.7,24.8,27.8,22.9z"></path>
                </g>
            </g>
        </symbol>
        <symbol version="1.1" id="travel-tickets" xmlns="http://www.w3.org/2000/svg" xmlns:xlink="http://www.w3.org/1999/xlink" x="0px" y="0px" xml:space="preserve" viewBox="0 0 64 64">
            <path d="M62,43v-9H44v28h18v-9c-2.8,0-5-2.2-5-5S59.2,43,62,43z"></path>
            <path d="M2,62h40V34H2V62z M16,41h22c0.6,0,1,0.4,1,1s-0.4,1-1,1H16c-0.6,0-1-0.4-1-1S15.4,41,16,41z M6,47h32
  c0.6,0,1,0.4,1,1s-0.4,1-1,1H6c-0.6,0-1-0.4-1-1S5.4,47,6,47z M6,53h32c0.6,0,1,0.4,1,1s-0.4,1-1,1H6c-0.6,0-1-0.4-1-1S5.4,53,6,53z
  "></path>
            <g>
                <path d="M21.7,32.1c-0.5-0.6-1-1.3-1.4-2.1c-2.7-5.2-0.8-11.6,4.3-14.3c5.1-2.7,11.5-0.6,14.2,4.6
    c2.1,3.9,1.4,8.6-1.2,11.7H44c4.7-5.8,7-13.3,8.7-18.8C44.2,10,32.8,6.7,22.6,12c-7.2,3.8-11.2,10.5-14.5,20.1H21.7z"></path>
                <g>
                    <path d="M27.8,22.9c-0.4-0.8-0.5-1.7-0.3-2.5c-0.3,0.1-0.5,0.2-0.8,0.3c-3,1.6-4.1,5.3-2.5,8.3c1.6,3,5.3,4.2,8.3,2.7
      c3-1.6,4.1-5.3,2.5-8.3c-0.1-0.2-0.3-0.5-0.4-0.7c-0.3,0.7-0.9,1.4-1.7,1.8C31,25.5,28.7,24.8,27.8,22.9z"></path>
                </g>
            </g>
        </symbol>
        <symbol version="1.1" id="upload-files" xmlns="http://www.w3.org/2000/svg" xmlns:xlink="http://www.w3.org/1999/xlink" x="0px" y="0px" xml:space="preserve" viewBox="0 0 512 512">
            <path d="M422.4,358.4c-42.4,0-76.8,34.4-76.8,76.8S380,512,422.4,512c42.4,0,76.8-34.4,76.8-76.8
  C499.2,392.8,464.8,358.4,422.4,358.4z M457,444.2c-5,5-13.1,5-18.1,0l-3.8-3.8v20.3c0,7.1-5.7,12.8-12.8,12.8
  c-7.1,0-12.8-5.7-12.8-12.8v-20.3l-3.8,3.8c-5.1,4.9-13.2,4.8-18.1-0.3c-4.8-5-4.8-12.9,0-17.8l25.6-25.6c0.3-0.3,0.6-0.5,0.9-0.8
  l0.3-0.2c0.2-0.2,0.4-0.3,0.7-0.5l0.3-0.2c0.3-0.2,0.6-0.4,1-0.6l0.2-0.1c0.3-0.1,0.6-0.3,0.8-0.4l0.3-0.1l0.8-0.3l0.3-0.1
  c0.4-0.1,0.7-0.2,1.1-0.3l0,0c0.4-0.1,0.7-0.1,1.1-0.2h0.2c0.3,0,0.7,0,1,0h0.2c0.8,0,1.5,0.1,2.3,0.2l0.3,0.1l0.8,0.2l0.4,0.1
  l0.7,0.2l0.4,0.1l0,0c0.3,0.1,0.6,0.3,1,0.4l0.4,0.2l0.7,0.4l0.3,0.2c0.3,0.2,0.5,0.4,0.8,0.6l0.1,0.1c0.3,0.2,0.6,0.5,0.9,0.8
  l0.1,0.1l25.6,25.6C462.1,431.2,462,439.3,457,444.2z M320,435.2c0-56.6,45.8-102.4,102.4-102.4l0,0V153.6L268.9,0H76.8
  c-35.3,0-64,28.7-64,64v384c0,35.3,28.7,64,64,64h278C332.7,492.6,320,464.6,320,435.2z M256,25.6l140.8,140.8H320
  c-35.3,0-64-28.7-64-64V25.6z M128,243.2h102.4c7.1,0,12.8,5.7,12.8,12.8s-5.7,12.8-12.8,12.8c0,0,0,0,0,0H128
  c-7.1,0-12.8-5.7-12.8-12.8C115.2,248.9,120.9,243.2,128,243.2L128,243.2L128,243.2z M128,294.4h179.2c7.1,0,12.8,5.7,12.8,12.8
  c0,7.1-5.7,12.8-12.8,12.8H128c-7.1,0-12.8-5.7-12.8-12.8C115.2,300.1,120.9,294.4,128,294.4L128,294.4z M306.8,371.2H128
  c-7.1,0-12.8-5.7-12.8-12.8c0-7.1,5.7-12.8,12.8-12.8l0,0h178.8c7.1,0,12.8,5.7,12.8,12.8C319.6,365.5,313.9,371.2,306.8,371.2z"></path>
        </symbol>
        <symbol version="1.1" id="upload-data-to-cloud" xmlns="http://www.w3.org/2000/svg" xmlns:xlink="http://www.w3.org/1999/xlink" x="0px" y="0px" xml:space="preserve" viewBox="0 0 512 512">
            <path d="M398.1,233.2c0-1.2,0.2-2.4,0.2-3.6c0-65-51.8-117.6-115.7-117.6c-46.1,0-85.7,27.4-104.3,67
  c-8.1-4.1-17.2-6.5-26.8-6.5c-29.5,0-54.1,21.9-58.8,50.5C57.3,235.2,32,269.1,32,309c0,50.2,40.1,91,89.5,91H224v-80h-48.2
  l80.2-83.7l80.2,83.6H288v80h110.3c45.2,0,81.7-37.5,81.7-83.4S443.3,233.3,398.1,233.2z"></path>
        </symbol>
        <symbol version="1.1" id="add-plus" xmlns="http://www.w3.org/2000/svg" xmlns:xlink="http://www.w3.org/1999/xlink" x="0px" y="0px" xml:space="preserve" viewBox="0 0 512 512">
            <g>
                <g>
                    <g>
                        <path d="M256,0C114.618,0,0,114.618,0,256s114.618,256,256,256s256-114.618,256-256S397.382,0,256,0z M256,469.333
        c-117.818,0-213.333-95.515-213.333-213.333S138.182,42.667,256,42.667S469.333,138.182,469.333,256S373.818,469.333,256,469.333
        z"></path>
                        <path d="M383.996,234.667H277.333V128c0-11.782-9.551-21.333-21.333-21.333s-21.333,9.551-21.333,21.333v106.667H128.038
        c-11.782,0-21.333,9.551-21.333,21.333s9.551,21.333,21.333,21.333h106.628V384c0,11.782,9.551,21.333,21.333,21.333
        s21.333-9.551,21.333-21.333V277.333h106.662c11.782,0,21.333-9.551,21.333-21.333S395.778,234.667,383.996,234.667z"></path>
                    </g>
                </g>
            </g>
        </symbol>
        <symbol version="1.1" xmlns="http://www.w3.org/2000/svg" xmlns:xlink="http://www.w3.org/1999/xlink" x="0px" y="0px" enable-background="new 0 0 1000 1000" xml:space="preserve" viewBox="0 0 1000 1000" id="application_status">
            <g>
                <path d="M978.3,610.6c-3.9,4-7.4,7.6-10.5,11.1c-3.1,3.5-5.8,6.4-8.2,8.8c-3.1,3.2-5.8,5.5-8.1,7l-98.8-97.9c4.6-3.9,9.9-8.6,15.7-14c5.8-5.5,10.6-9.8,14.6-12.9c9.3-8.6,19.4-12.2,30.2-11.1c10.8,1.2,19.7,3.7,26.7,7.6c7.8,3.9,16.1,10.7,25,20.4c8.9,9.8,15.7,20,20.3,31c2.3,6.2,3.9,14,4.7,23.3C990.7,593.1,986.8,602.1,978.3,610.6L978.3,610.6z M799.2,789l-41.8,42L719,869.4c-10.9,10.9-20,20.2-27.3,28c-7.4,7.7-11.4,12-12.2,12.8c-3.9,3.1-8.1,6.4-12.8,10c-4.6,3.4-9.3,6.4-13.9,8.7c-4.6,2.3-11.8,5.2-21.5,8.8c-9.7,3.5-19.6,6.7-29.6,9.9c-10.1,3.1-19.8,5.8-29.1,8.1c-9.3,2.4-16.3,3.9-20.9,4.7c-9.3,1.6-15.5,0.4-18.6-3.5c-3.1-3.9-3.9-10.5-2.3-19.8c0.8-4.7,2.3-11.7,4.6-21c2.3-9.4,5-18.9,8.2-28.6c3.1-9.8,6-18.9,8.7-27.5c2.7-8.5,4.8-14.4,6.3-17.4c4.7-10.1,10.9-19,18.6-26.8l15.1-15.2l29-29.1c11.6-11.7,24.4-24.7,38.3-39c13.9-14.4,27.9-28.6,41.8-42.5c33.4-33.4,70.9-70.8,112.8-111.9l97.6,97.9L799.2,789L799.2,789z M702.2,183.2c0-15.9-12.9-28.9-28.8-28.9h-57.7V96.7h115.4c15.9,0,28.8,12.9,28.8,28.9v392.2l-57.7,63.5L702.2,183.2L702.2,183.2z M615.7,313c0,7.9-6.5,14.4-14.4,14.4H168.6c-8,0-14.4-6.5-14.4-14.4v-28.9c0-8,6.4-14.4,14.4-14.4h432.7c8,0,14.4,6.4,14.4,14.4V313L615.7,313z M558,212h-28.9c-15.9,0-28.8-12.9-28.8-28.9V67.8c0-15.9,12.9-28.9,28.8-28.9H558c15.9,0,28.8,12.9,28.8,28.9v115.4C586.9,199.1,573.9,212,558,212L558,212z M298.4,96.7h173.1v57.7H298.4V96.7L298.4,96.7z M240.7,212h-28.8c-15.9,0-28.9-12.9-28.9-28.9V67.8c0-15.9,12.9-28.9,28.9-28.9h28.8c15.9,0,28.9,12.9,28.9,28.9v115.4C269.6,199.1,256.7,212,240.7,212L240.7,212z M67.7,183.2v634.5c0,15.9,12.9,28.9,28.9,28.9H461l-52.4,57.7H38.8c-15.9,0-28.8-12.9-28.8-28.8V125.5c0-16,12.9-28.9,28.8-28.9h115.4v57.7H96.5C80.6,154.3,67.7,167.3,67.7,183.2L67.7,183.2z M168.6,788.9c-8,0-14.4-6.5-14.4-14.4v-28.9c0-8,6.4-14.4,14.4-14.4h397.2l-52.4,57.7H168.6L168.6,788.9z M615.7,659.1c0,7.9-6.5,14.4-14.4,14.4H168.6c-8,0-14.4-6.5-14.4-14.4v-28.8c0-8,6.4-14.4,14.4-14.4h432.6c8,0,14.4,6.4,14.4,14.4V659.1L615.7,659.1z M601.3,442.8H168.6c-8,0-14.4-6.5-14.4-14.4v-28.9c0-8,6.4-14.4,14.4-14.4h432.7c8,0,14.4,6.4,14.4,14.4v28.9C615.7,436.3,609.2,442.8,601.3,442.8L601.3,442.8z M615.7,543.7c0,7.9-6.5,14.4-14.4,14.4H168.6c-8,0-14.4-6.5-14.4-14.4v-28.9c0-8,6.4-14.4,14.4-14.4h432.7c8,0,14.4,6.4,14.4,14.4V543.7L615.7,543.7z"></path>
            </g>
        </symbol>
    </svg>