<svg xmlns="http://www.w3.org/2000/svg" xmlns:xlink="http://www.w3.org/1999/xlink" width="126.846" height="130.969" viewBox="0 0 126.846 130.969">
  <defs>
    <clipPath id="clip-path">
      <rect id="Rectangle_91" data-name="Rectangle 91" width="126.846" height="130.969" fill="none"/>
    </clipPath>
  </defs>
  <g id="Group_18" data-name="Group 18" clip-path="url(#clip-path)">
    <path id="Path_94" data-name="Path 94" d="M3.752,36.39l.7.472a57.888,57.888,0,0,0,32.366,9.895,57.891,57.891,0,0,0,31.475-9.306A1.493,1.493,0,0,1,70.3,39.595L47.538,70.25Q44.93,73.762,42.1,77.1L23.945,98.56a2.757,2.757,0,0,1-4.856-1.967l.608-8.966a52.07,52.07,0,0,0-9.024-32.993L.44,39.729A2.394,2.394,0,0,1,3.752,36.39" transform="translate(0 10.006)"/>
    <path id="Path_95" data-name="Path 95" d="M43.212,34.006A10.728,10.728,0,1,1,32.484,23.278,10.729,10.729,0,0,1,43.212,34.006" transform="translate(6.054 6.477)"/>
    <path id="Path_96" data-name="Path 96" d="M108.488,49.416l-.557.376a46.1,46.1,0,0,1-50.843.469,1.189,1.189,0,0,0-1.6,1.706L73.617,76.382q2.078,2.8,4.329,5.459L92.406,98.929a2.2,2.2,0,0,0,3.868-1.567l-.484-7.14a41.472,41.472,0,0,1,7.186-26.275l8.15-11.871a1.906,1.906,0,0,0-2.637-2.659" transform="translate(15.37 13.654)"/>
    <path id="Path_97" data-name="Path 97" d="M68.54,47.518a8.544,8.544,0,1,0,8.544-8.544,8.544,8.544,0,0,0-8.544,8.544" transform="translate(19.07 10.844)"/>
    <path id="Path_98" data-name="Path 98" d="M37.048,72.592l.423.285a35.064,35.064,0,0,0,38.671.358.9.9,0,0,1,1.217,1.3L63.57,93.1q-1.582,2.128-3.294,4.153l-11,13a1.67,1.67,0,0,1-2.941-1.191l.368-5.431A31.539,31.539,0,0,0,41.24,83.642l-6.2-9.028a1.449,1.449,0,0,1,2.006-2.022" transform="translate(9.676 20.125)"/>
    <path id="Path_99" data-name="Path 99" d="M60.949,71.147a6.5,6.5,0,1,1-6.5-6.5,6.5,6.5,0,0,1,6.5,6.5" transform="translate(13.342 17.988)"/>
    <path id="Path_100" data-name="Path 100" d="M63.148,0A55.139,55.139,0,0,0,9.661,41.769,55.1,55.1,0,0,1,94.524,20.842a4.324,4.324,0,0,0,5.532-6.643A54.893,54.893,0,0,0,63.148,0" transform="translate(2.688 0)"/>
    <path id="Path_101" data-name="Path 101" d="M89.438,15.118l2.168,4.393a.84.84,0,0,0,.633.459l4.848.706a.841.841,0,0,1,.467,1.434l-3.509,3.419a.839.839,0,0,0-.242.744l.828,4.828a.842.842,0,0,1-1.221.887l-4.336-2.28a.838.838,0,0,0-.782,0l-4.336,2.28a.842.842,0,0,1-1.221-.887l.828-4.828a.839.839,0,0,0-.242-.744L79.816,22.11a.841.841,0,0,1,.465-1.434l4.848-.706a.84.84,0,0,0,.633-.459l2.168-4.393a.841.841,0,0,1,1.508,0" transform="translate(22.137 4.076)"/>
  </g>
</svg>
